External Loads File
version=1
nRows=93
nColumns=13
Range=5.000000e-03-10 seconds
endheader
time 	forceRightX 	forceRightY 	forceRightZ 	pointRightX 	pointRightY 	pointRightZ 	forceLeftX 	forceLeftY 	forceLeftZ 	pointLeftX 	pointLeftY 	pointLeftZ 		
5.005000 -0.572511 -48.552358 -0.000000 0.174838 0.427718 -0.147557 58.500259 976.979928 -0.000000 0.399129 0.215531 -0.382556
5.010000 -3.314720 -49.263985 -0.000000 0.181624 0.436766 -0.147806 11.568754 983.417835 -0.000000 0.392997 0.207313 -0.382097
5.015000 -12.803264 -48.883083 -0.000000 0.188806 0.445259 -0.148210 86.474617 980.936433 -0.000000 0.386316 0.199594 -0.381738
5.020000 -16.865958 -49.383441 -0.000000 0.196534 0.453317 -0.148619 44.989275 981.096499 -0.000000 0.379162 0.192345 -0.381544
5.025000 -27.817797 -46.754761 -0.000000 0.204554 0.460769 -0.149144 138.889364 965.402749 -0.000000 0.371525 0.185600 -0.381389
5.030000 -32.184390 -47.200204 -0.000000 0.213103 0.467597 -0.149417 99.479835 959.062868 -0.000000 0.363542 0.179370 -0.381231
5.035000 -42.012334 -43.061603 -0.000000 0.221913 0.473914 -0.149832 176.673349 932.134379 -0.000000 0.355108 0.173593 -0.381117
5.040000 -46.212274 -43.080207 -0.000000 0.231283 0.479761 -0.150201 140.942249 918.264243 -0.000000 0.346371 0.168421 -0.381056
5.045000 -54.890456 -36.176003 -0.000000 0.240364 0.484885 -0.150879 214.778513 879.287824 -0.000000 0.337386 0.163797 -0.380872
5.050000 -58.249106 -33.858518 -0.000000 0.250324 0.489378 -0.151027 180.403364 858.224440 -0.000000 0.328131 0.159810 -0.380701
5.055000 -64.301844 -21.438176 -0.000000 0.260255 0.493211 -0.151407 249.943256 806.318282 -0.000000 0.318668 0.156484 -0.380653
5.060000 -65.813939 -13.348680 -0.000000 0.270189 0.496363 -0.151807 214.774689 777.019266 -0.000000 0.309088 0.153820 -0.380584
5.065000 -66.305397 7.150616 -0.000000 0.280291 0.498840 -0.152121 271.803426 712.392705 -0.000000 0.299442 0.151852 -0.380442
5.070000 -64.647747 24.106996 -0.000000 0.290212 0.500583 -0.152246 236.341499 672.704899 -0.000000 0.289739 0.150682 -0.380368
5.075000 -55.211124 54.266194 -0.000000 0.300517 0.501733 -0.152160 289.253711 591.012413 -0.000000 0.280028 0.150234 -0.380316
5.080000 -49.227933 79.926210 -0.000000 0.310381 0.502121 -0.152214 249.713056 543.466312 -0.000000 0.270338 0.150484 -0.380233
5.085000 -28.708258 114.207925 -0.000000 0.319751 0.501752 -0.152033 274.762221 458.337247 -0.000000 0.260717 0.151479 -0.380146
5.090000 -19.666090 145.814044 -0.000000 0.328633 0.500685 -0.151692 233.799144 405.927412 -0.000000 0.251231 0.153217 -0.380029
5.095000 9.560196 179.743121 -0.000000 0.336842 0.498848 -0.151386 237.666745 324.484955 -0.000000 0.241942 0.155671 -0.379868
5.100000 18.016481 214.129284 -0.000000 0.344895 0.496365 -0.151115 197.787559 273.946426 -0.000000 0.232858 0.158818 -0.379559
5.105000 54.799182 244.958970 -0.000000 0.352182 0.493140 -0.150417 190.596781 201.922479 -0.000000 0.224002 0.162640 -0.379229
5.110000 58.812555 282.126257 -0.000000 0.359389 0.489165 -0.149825 155.050100 160.938454 -0.000000 0.215420 0.167065 -0.378925
5.115000 96.923106 311.899534 -0.000000 0.366033 0.484023 -0.149265 140.221679 107.267123 -0.000000 0.207070 0.172039 -0.378568
5.120000 93.919879 354.352679 -0.000000 0.372802 0.478380 -0.148368 112.853039 77.914688 -0.000000 0.198933 0.177514 -0.378198
5.125000 83.963129 399.555241 -0.000000 0.378938 0.472060 -0.147549 90.967461 51.634432 -0.000000 0.190540 0.183489 -0.377159
5.130000 66.963136 446.477103 -0.000000 0.384828 0.465036 -0.147010 73.241708 27.151839 -0.000000 0.183162 0.189951 -0.376913
5.135000 41.793357 493.645631 -0.000000 0.390341 0.457387 -0.146766 58.195787 3.324103 -0.000000 0.176242 0.196872 -0.376706
5.140000 8.652655 538.821202 -0.000000 0.395548 0.449174 -0.146653 44.792906 -20.772751 -0.000000 0.169658 0.204241 -0.376525
5.145000 -32.410197 579.528703 -0.000000 0.400586 0.440328 -0.146570 32.618906 -45.008536 -0.000000 0.163423 0.212039 -0.376404
5.150000 161.779384 597.074971 -0.000000 0.405372 0.430961 -0.146393 -5.858250 -71.274201 -0.000000 0.157669 0.220237 -0.376348
5.155000 200.275706 620.794402 -0.000000 0.410053 0.421228 -0.146467 -31.603174 -83.022649 -0.000000 0.152429 0.228836 -0.376306
5.160000 157.023563 662.631718 -0.000000 0.414366 0.411218 -0.146562 -43.434143 -93.074935 -0.000000 0.147632 0.237811 -0.376351
5.165000 201.617429 675.282865 -0.000000 0.418394 0.400817 -0.146495 -62.907940 -91.566037 -0.000000 0.143318 0.247132 -0.376419
5.170000 145.348843 709.471078 -0.000000 0.421998 0.390245 -0.146559 -63.531533 -94.076990 -0.000000 0.139615 0.256780 -0.376524
5.175000 170.934707 720.365279 -0.000000 0.425361 0.379504 -0.146572 -69.738691 -85.592284 -0.000000 0.136407 0.266717 -0.376542
5.180000 106.639244 746.716083 -0.000000 0.428122 0.368831 -0.146501 -60.582152 -82.861406 -0.000000 0.133850 0.276919 -0.376666
5.185000 134.001373 755.132159 -0.000000 0.430380 0.357740 -0.146277 -57.531233 -70.953772 -0.000000 0.131893 0.287302 -0.376690
5.190000 68.449662 775.949506 -0.000000 0.432316 0.346524 -0.147050 -42.634083 -64.941949 -0.000000 0.130622 0.297830 -0.376762
5.195000 113.727059 782.522878 -0.000000 0.433707 0.335479 -0.146812 -34.590605 -52.519532 -0.000000 0.129925 0.308455 -0.376806
5.200000 51.198147 800.748157 -0.000000 0.434204 0.324465 -0.146934 -17.831771 -44.911412 -0.000000 0.129953 0.319106 -0.376835
5.205000 87.004455 809.308423 -0.000000 0.434323 0.313465 -0.146885 -6.214112 -35.325762 -0.000000 0.130608 0.329784 -0.376858
5.210000 28.931314 825.286550 -0.000000 0.433433 0.302769 -0.146246 9.183234 -27.037224 -0.000000 0.131846 0.340385 -0.376907
5.215000 76.860825 834.894642 -0.000000 0.432370 0.291786 -0.147127 20.150491 -20.903025 -0.000000 0.133860 0.350913 -0.376972
5.220000 21.099983 852.440607 -0.000000 0.430442 0.281218 -0.147290 32.269382 -13.690820 -0.000000 0.136394 0.361317 -0.377064
5.225000 69.344788 866.768741 -0.000000 0.427839 0.270796 -0.147510 40.641620 -11.996731 -0.000000 0.139665 0.371613 -0.377256
5.230000 14.459113 889.519216 -0.000000 0.424592 0.260382 -0.147463 48.047413 -7.386528 -0.000000 0.143495 0.381686 -0.377331
5.235000 71.239026 910.428506 -0.000000 0.420795 0.250201 -0.147520 51.704901 -10.626253 -0.000000 0.148060 0.391590 -0.377592
5.240000 17.892905 939.732176 -0.000000 0.416235 0.240364 -0.147520 53.805723 -9.516689 -0.000000 0.153153 0.401245 -0.377758
5.245000 79.207546 965.670167 -0.000000 0.411123 0.230847 -0.147746 51.821531 -16.554816 -0.000000 0.158896 0.410616 -0.377949
5.250000 29.014738 998.763026 -0.000000 0.405565 0.221561 -0.147540 49.121528 -19.179735 -0.000000 0.165235 0.419633 -0.378183
5.255000 123.566439 1022.019204 -0.000000 0.399490 0.212632 -0.147532 40.950147 -29.934584 -0.000000 0.172109 0.428307 -0.378370
5.260000 77.193901 1055.482482 -0.000000 0.392941 0.204326 -0.147753 34.559554 -35.903707 -0.000000 0.179494 0.436598 -0.378512
5.265000 158.526058 1072.452643 -0.000000 0.385965 0.196367 -0.147013 21.902493 -46.706190 -0.000000 0.187356 0.444455 -0.378643
5.270000 112.518243 1099.465998 -0.000000 0.378570 0.188935 -0.146813 13.261094 -55.305117 -0.000000 0.195715 0.451869 -0.378817
5.275000 200.617243 1101.853193 -0.000000 0.370856 0.182103 -0.146752 -3.314692 -65.413733 -0.000000 0.204335 0.458827 -0.378765
5.280000 153.940313 1116.305772 -0.000000 0.362751 0.175759 -0.146713 -12.597135 -75.459836 -0.000000 0.212630 0.465275 -0.378266
5.285000 243.372225 1098.019315 -0.000000 0.354413 0.170067 -0.146680 -31.340516 -82.993373 -0.000000 0.221969 0.471210 -0.378257
5.290000 195.541702 1095.181719 -0.000000 0.345855 0.165119 -0.146564 -39.528955 -92.961882 -0.000000 0.232035 0.476614 -0.378798
5.295000 279.885102 1053.437247 -0.000000 0.337156 0.160725 -0.146458 -58.306871 -96.131468 -0.000000 0.241548 0.481449 -0.378783
5.300000 232.508584 1031.313177 -0.000000 0.328314 0.156996 -0.146197 -64.118663 -103.898500 -0.000000 0.251254 0.485695 -0.378656
5.305000 323.872724 961.511494 -0.000000 0.319352 0.153842 -0.145927 -82.595144 -99.421055 -0.000000 0.261126 0.489317 -0.378741
5.310000 275.109242 922.721075 -0.000000 0.310433 0.151307 -0.145547 -85.020091 -102.695066 -0.000000 0.271019 0.492277 -0.378783
5.315000 324.905397 842.396341 -0.000000 0.301408 0.149413 -0.145199 -96.387051 -92.863013 -0.000000 0.281102 0.494553 -0.378769
5.320000 275.484119 789.027217 -0.000000 0.292520 0.147980 -0.144713 -94.701845 -89.885411 -0.000000 0.290920 0.496158 -0.378980
5.325000 324.444949 690.266635 -0.000000 0.283635 0.147166 -0.144219 -101.634153 -70.156130 -0.000000 0.300648 0.497060 -0.379151
5.330000 273.555512 628.353311 -0.000000 0.274809 0.147104 -0.143743 -95.762202 -59.886067 -0.000000 0.310272 0.497298 -0.379425
5.335000 293.816109 529.154856 -0.000000 0.266057 0.147896 -0.143307 -93.805617 -33.983032 -0.000000 0.319517 0.496867 -0.379900
5.340000 246.034011 463.099243 -0.000000 0.257363 0.149287 -0.142831 -84.655859 -15.200124 -0.000000 0.329113 0.495790 -0.379477
5.345000 262.587673 358.940305 -0.000000 0.248764 0.151475 -0.142332 -73.444342 20.094398 -0.000000 0.337892 0.494005 -0.379845
5.350000 215.831792 298.386684 -0.000000 0.240204 0.154346 -0.141948 -61.515139 46.928578 -0.000000 0.345857 0.491520 -0.380453
5.355000 195.924541 223.021921 -0.000000 0.231642 0.158106 -0.141700 -44.600714 82.802556 -0.000000 0.353551 0.488276 -0.381374
5.360000 158.156472 170.035501 -0.000000 0.223164 0.162576 -0.141610 -35.209780 118.251317 -0.000000 0.360700 0.484258 -0.381948
5.365000 139.278442 107.445242 -0.000000 0.214594 0.167761 -0.141791 -14.498007 160.120355 -0.000000 0.367677 0.479427 -0.382507
5.370000 111.474630 66.073905 -0.000000 0.206114 0.173673 -0.142203 -11.857405 202.827301 -0.000000 0.374430 0.473866 -0.383289
5.375000 94.295669 15.048473 -0.000000 0.197802 0.180280 -0.142565 23.137500 247.642760 -0.000000 0.380929 0.467596 -0.384107
5.380000 75.266304 -13.074995 -0.000000 0.189204 0.187500 -0.143423 18.217135 295.522122 -0.000000 0.386887 0.460687 -0.384664
5.385000 57.735404 -43.843937 -0.000000 0.181459 0.195319 -0.143811 47.010554 340.864065 -0.000000 0.392566 0.453189 -0.385130
5.390000 48.544317 -61.217278 -0.000000 0.174219 0.203622 -0.144122 30.440542 390.475874 -0.000000 0.397849 0.445180 -0.385394
5.395000 35.136770 -79.091137 -0.000000 0.168067 0.212603 -0.143907 58.093290 434.034932 -0.000000 0.402797 0.436647 -0.385504
5.400000 34.193643 -87.582758 -0.000000 0.161813 0.221958 -0.144120 29.136765 481.370475 -0.000000 0.407356 0.427629 -0.385535
5.405000 23.276935 -96.349225 -0.000000 0.156292 0.231543 -0.144363 66.830526 520.043033 -0.000000 0.411669 0.418099 -0.385532
5.410000 28.350385 -97.471379 -0.000000 0.151304 0.241374 -0.144721 27.906151 563.017346 -0.000000 0.415688 0.408182 -0.385435
5.415000 24.012553 -98.549182 -0.000000 0.147009 0.251142 -0.145022 53.551155 597.612093 -0.000000 0.419424 0.397992 -0.385245
5.420000 32.993717 -93.833973 -0.000000 0.142731 0.261007 -0.145407 6.302708 632.896226 -0.000000 0.422769 0.387545 -0.385074
5.425000 30.034029 -91.551548 -0.000000 0.139869 0.271132 -0.145477 47.025089 660.691286 -0.000000 0.425737 0.376840 -0.384844
5.430000 40.191351 -83.679268 -0.000000 0.137931 0.281181 -0.145566 -3.006615 688.384593 -0.000000 0.428183 0.366050 -0.384628
5.435000 39.434099 -80.275945 -0.000000 0.136429 0.291335 -0.145660 35.907183 710.372804 -0.000000 0.430040 0.355147 -0.384471
5.440000 48.183559 -71.694857 -0.000000 0.135756 0.301618 -0.145683 -15.335852 731.303252 -0.000000 0.431390 0.344060 -0.384401
5.445000 47.296224 -68.924197 -0.000000 0.135679 0.312059 -0.145823 18.471352 749.328055 -0.000000 0.432323 0.332934 -0.384871
5.450000 52.662169 -61.399116 -0.000000 0.136229 0.322235 -0.145802 -32.806427 765.666925 -0.000000 0.432431 0.321863 -0.384025
5.455000 55.831215 -54.668327 -0.000000 0.137437 0.332849 -0.145906 -85.808005 778.130903 -0.000000 0.432000 0.310822 -0.383642
5.460000 49.838203 -56.468896 -0.000000 0.139302 0.343416 -0.146091 -32.219868 799.153143 -0.000000 0.430933 0.299846 -0.383521
5.465000 43.323878 -58.178260 -0.000000 0.141703 0.353865 -0.146272 11.620440 817.594894 -0.000000 0.429286 0.289002 -0.383427
